<svg id="App_Icon_Kit_A" data-name="App Icon Kit A" xmlns="http://www.w3.org/2000/svg" xmlns:xlink="http://www.w3.org/1999/xlink" viewBox="0 0 120 120"><defs><style>.cls-1{font-size:399.09px;}.cls-1,.cls-2,.cls-3{fill:#fff;}.cls-1,.cls-2{font-family:MyriadPro-Regular, Myriad Pro;}.cls-2{font-size:316.53px;}.cls-3{font-size:387.18px;font-family:TeluguSangamMN, Telugu Sangam MN;}.cls-4{fill:#ff8039;}.cls-5{opacity:0.71;}</style><symbol id="Icon" data-name="Icon" viewBox="0 0 1024 1024"><path id="App_Icon_Placeholder" data-name="App Icon Placeholder" d="M357,0H667C769.8,0,821.18,0,876.52,17.49a217.47,217.47,0,0,1,130,130C1024,202.83,1024,254.22,1024,357V667c0,102.8,0,154.19-17.5,209.53a217.43,217.43,0,0,1-130,130C821.18,1024,769.8,1024,667,1024H357c-102.79,0-154.17,0-209.51-17.5a217.43,217.43,0,0,1-130-130C0,821.18,0,769.79,0,667V357C0,254.22,0,202.83,17.5,147.48a217.47,217.47,0,0,1,130-130C202.82,0,254.2,0,357,0h0"/><text class="cls-1" transform="translate(85.47 621.78) scale(1.42 1)">T</text><text class="cls-2" transform="translate(377.49 622.38) scale(1.28 1)">ā</text><text class="cls-3" transform="translate(588 631.72) scale(1.63 1)">l</text><text class="cls-2" transform="translate(737.65 623.66) scale(1.28 1)">a</text><rect class="cls-4" x="430" y="419" width="91" height="18"/></symbol></defs><g id="Notifications_and_Activity_-_Preview" data-name="Notifications and Activity - Preview"><g id="Loading"><use width="1024" height="1024" transform="scale(0.12)" xlink:href="#Icon"/><g id="App_Icon_Loading_Indicator_Overlay" data-name="App Icon Loading Indicator Overlay" class="cls-5"><path d="M59,26.26a33,33,0,1,0,33,33,33.89,33.89,0,0,0-.52-5.83L59,59.26Z"/><path d="M118,17.28A25.49,25.49,0,0,0,102.72,2.05C96.23,0,90.21,0,78.16,0H41.84C29.79,0,23.77,0,17.28,2.05A25.49,25.49,0,0,0,2.05,17.28C0,23.77,0,29.79,0,41.84V78.16c0,12,0,18.07,2.05,24.56A25.49,25.49,0,0,0,17.28,118c6.49,2,12.51,2,24.56,2H78.16c12,0,18.07,0,24.56-2A25.49,25.49,0,0,0,118,102.72c2-6.49,2-12.51,2-24.56V41.84C120,29.79,120,23.77,118,17.28ZM60,99A39,39,0,1,1,99,60,39,39,0,0,1,60,99Z"/></g></g></g></svg>