<svg id="App_Icon_Kit_A" data-name="App Icon Kit A" xmlns="http://www.w3.org/2000/svg" xmlns:xlink="http://www.w3.org/1999/xlink" viewBox="0 0 58 58"><defs><style>.cls-1{font-size:399.09px;}.cls-1,.cls-2,.cls-3{fill:#fff;}.cls-1,.cls-2{font-family:MyriadPro-Regular, Myriad Pro;}.cls-2{font-size:316.53px;}.cls-3{font-size:387.18px;font-family:TeluguSangamMN, Telugu Sangam MN;}.cls-4{fill:#ff8039;}</style><symbol id="Icon" data-name="Icon" viewBox="0 0 1024 1024"><path id="App_Icon_Placeholder" data-name="App Icon Placeholder" d="M357,0H667C769.8,0,821.18,0,876.52,17.49a217.47,217.47,0,0,1,130,130C1024,202.83,1024,254.22,1024,357V667c0,102.8,0,154.19-17.5,209.53a217.43,217.43,0,0,1-130,130C821.18,1024,769.8,1024,667,1024H357c-102.79,0-154.17,0-209.51-17.5a217.43,217.43,0,0,1-130-130C0,821.18,0,769.79,0,667V357C0,254.22,0,202.83,17.5,147.48a217.47,217.47,0,0,1,130-130C202.82,0,254.2,0,357,0h0"/><text class="cls-1" transform="translate(85.47 621.78) scale(1.42 1)">T</text><text class="cls-2" transform="translate(377.49 622.38) scale(1.28 1)">ā</text><text class="cls-3" transform="translate(588 631.72) scale(1.63 1)">l</text><text class="cls-2" transform="translate(737.65 623.66) scale(1.28 1)">a</text><rect class="cls-4" x="430" y="419" width="91" height="18"/></symbol></defs><g id="Spotlight_Icon_-_Preview_Sizes" data-name="Spotlight Icon - Preview Sizes"><g id="_58" data-name="58"><use width="1024" height="1024" transform="translate(0 0.11) scale(0.06)" xlink:href="#Icon"/></g></g></svg>